<svg width="37" height="37" viewBox="0 0 37 37" fill="none" xmlns="http://www.w3.org/2000/svg">
<path d="M16.5753 1.42549C17.1546 -0.475162 19.8454 -0.475158 20.4247 1.4255L21.6419 5.41914C22.0323 6.70002 23.5416 7.24934 24.6639 6.51907L28.1635 4.24217C29.8289 3.15854 31.8902 4.88817 31.1123 6.71652L29.4776 10.5582C28.9534 11.7904 29.7564 13.1813 31.0856 13.3434L35.23 13.8486C37.2023 14.089 37.6696 16.739 35.8984 17.6395L32.1768 19.5317C30.9832 20.1386 30.7043 21.7203 31.6184 22.6988L34.4683 25.7498C35.8247 27.2018 34.4793 29.5321 32.5436 29.0835L28.4764 28.1408C27.172 27.8384 25.9416 28.8708 26.0129 30.208L26.235 34.3771C26.3407 36.3613 23.8121 37.2816 22.6177 35.6937L20.108 32.3572C19.3031 31.2871 17.6969 31.2871 16.892 32.3572L14.3823 35.6937C13.1879 37.2816 10.6593 36.3613 10.765 34.3771L10.9871 30.208C11.0584 28.8708 9.82803 27.8384 8.52356 28.1408L4.45635 29.0835C2.52069 29.5321 1.17528 27.2018 2.53165 25.7498L5.38165 22.6988C6.29572 21.7203 6.01683 20.1386 4.8232 19.5317L1.10159 17.6395C-0.669598 16.739 -0.202339 14.089 1.77003 13.8486L5.91437 13.3434C7.24358 13.1813 8.04664 11.7904 7.52236 10.5582L5.88773 6.71652C5.10978 4.88817 7.17107 3.15855 8.83655 4.24217L12.3361 6.51907C13.4584 7.24934 14.9677 6.70002 15.3581 5.41914L16.5753 1.42549Z" fill="black"/>
</svg>
