<svg width="36" height="30" viewBox="0 0 36 30" fill="none" xmlns="http://www.w3.org/2000/svg">
<path d="M13.3316 6.74366H7.21726C5.13482 6.74366 4.09282 6.74366 3.29743 7.14156C2.59778 7.49157 2.02936 8.04965 1.67288 8.73658C1.26761 9.5175 1.26761 10.5406 1.26761 12.5851V22.8071C1.26761 24.8517 1.26761 25.8726 1.67288 26.6535C2.02936 27.3404 2.59778 27.9004 3.29743 28.2504C4.09204 28.6479 5.13278 28.6479 7.21116 28.6479H28.7888C30.8672 28.6479 31.9065 28.6479 32.7011 28.2504C33.4007 27.9004 33.971 27.3404 34.3275 26.6535C34.7324 25.8733 34.7324 24.853 34.7324 22.8124V12.5791C34.7324 10.5386 34.7324 9.51674 34.3275 8.73658C33.971 8.04965 33.4007 7.49157 32.7011 7.14156C31.9057 6.74366 30.8659 6.74366 28.7835 6.74366H22.668M13.3316 6.74366H13.4465M13.3316 6.74366C13.3549 6.74367 13.3794 6.74367 13.4052 6.74367L13.4465 6.74366M13.3316 6.74366C13.1343 6.74358 13.0238 6.74258 12.9363 6.73297C11.8439 6.61288 11.0947 5.592 11.3241 4.53652C11.3455 4.43829 11.3877 4.31401 11.4712 4.06791L11.4748 4.0575C11.5702 3.77642 11.6179 3.63588 11.6707 3.51186C12.2103 2.24214 13.4325 1.37864 14.83 1.27749C14.9665 1.26761 15.1165 1.26761 15.4182 1.26761H20.5816C20.8834 1.26761 21.0346 1.26761 21.1711 1.27749C22.5686 1.37864 23.7894 2.24214 24.3291 3.51186C24.3818 3.63588 24.4298 3.77626 24.5252 4.05733C24.6111 4.31045 24.6541 4.43707 24.6758 4.53669C24.9052 5.59217 24.1571 6.61288 23.0647 6.73297C22.9773 6.74258 22.8656 6.74358 22.668 6.74366M13.4465 6.74366H22.553M22.553 6.74366H22.668M22.553 6.74366L22.5943 6.74367C22.6201 6.74367 22.6447 6.74367 22.668 6.74366M18 23.1718C14.9197 23.1718 12.4225 20.7201 12.4225 17.6958C12.4225 14.6714 14.9197 12.2197 18 12.2197C21.0803 12.2197 23.5775 14.6714 23.5775 17.6958C23.5775 20.7201 21.0803 23.1718 18 23.1718Z" stroke="#F5F5DC" stroke-width="2.5" stroke-linecap="round" stroke-linejoin="round"/>
</svg>
