<svg width="26" height="29" viewBox="0 0 26 29" fill="none" xmlns="http://www.w3.org/2000/svg">
<path d="M1.27654 10.0691H24.7235M1.27654 10.0691V22.9652C1.27654 24.6067 1.27654 25.427 1.59599 26.0539C1.87698 26.6054 2.32502 27.0542 2.8765 27.3352C3.50283 27.6543 4.32317 27.6543 5.9614 27.6543H20.0393C21.6775 27.6543 22.4967 27.6543 23.123 27.3352C23.6745 27.0542 24.1233 26.6054 24.4043 26.0539C24.7235 25.4276 24.7235 24.6084 24.7235 22.9702V10.0691M1.27654 10.0691V8.89708C1.27654 7.25564 1.27654 6.43431 1.59599 5.80736C1.87698 5.25589 2.32502 4.80785 2.8765 4.52685C3.50345 4.20741 4.32478 4.20741 5.96621 4.20741H7.13827M24.7235 10.0691V8.89226C24.7235 7.25403 24.7235 6.4337 24.4043 5.80736C24.1233 5.25589 23.6745 4.80785 23.123 4.52685C22.4961 4.20741 21.6758 4.20741 20.0344 4.20741H18.8617M7.13827 4.20741H18.8617M7.13827 4.20741V1.27654M18.8617 4.20741V1.27654M16.6636 18.8617H13M13 18.8617H9.33642M13 18.8617V15.1982M13 18.8617V22.5253" stroke="#F5F5DC" stroke-width="2.5" stroke-linecap="round" stroke-linejoin="round"/>
</svg>
