<svg width="35" height="28" viewBox="0 0 35 28" fill="none" xmlns="http://www.w3.org/2000/svg">
<path d="M3.53988 3.52564L14.1978 11.5084L14.2013 11.5113C15.3848 12.3721 15.9768 12.8027 16.6253 12.9691C17.1985 13.1161 17.801 13.1161 18.3742 12.9691C19.0233 12.8026 19.6171 12.3707 20.8026 11.5084C20.8026 11.5084 27.6387 6.30515 31.4601 3.52564M1.79487 20.4875V7.33367C1.79487 5.39502 1.79487 4.42498 2.17526 3.68452C2.50986 3.03319 3.04338 2.50402 3.70007 2.17215C4.44663 1.79487 5.42465 1.79487 7.37925 1.79487H27.6214C29.576 1.79487 30.5519 1.79487 31.2985 2.17215C31.9552 2.50402 32.4905 3.03319 32.8251 3.68452C33.2051 4.42426 33.2051 5.39313 33.2051 7.32798V20.4934C33.2051 22.4282 33.2051 23.3957 32.8251 24.1354C32.4905 24.7868 31.9552 25.3168 31.2985 25.6487C30.5527 26.0256 29.5772 26.0256 27.6265 26.0256H7.37352C5.42274 26.0256 4.4459 26.0256 3.70007 25.6487C3.04338 25.3168 2.50986 24.7868 2.17526 24.1354C1.79487 23.395 1.79487 22.4262 1.79487 20.4875Z" stroke="#330F0A" stroke-width="3.54737" stroke-linecap="round" stroke-linejoin="round"/>
</svg>
